<svg width="31" height="30" fill="none" xmlns="http://www.w3.org/2000/svg"><g clip-path="url(#a)"><path d="M24.678 32.026c0 1.597-1.473 2.875-3.315 2.875H11.049c-1.841 0-3.315-1.278-3.315-2.875V14.793c0-1.597 1.474-2.875 3.315-2.875h10.24c1.842 0 3.315 1.278 3.315 2.875v17.233h.074Z" fill="#C4C4C4"/><path d="M15.75 1.442c-3.713 0-7.256 1.428-9.884 4.114l1.6 1.6c2.228-2.229 5.142-3.428 8.284-3.428 3.143 0 6.057 1.2 8.285 3.428l1.6-1.6c-2.629-2.686-6.17-4.114-9.885-4.114Z" fill="#92001F"/><path d="M15.75 5.613a9.289 9.289 0 0 0-6.627 2.742l1.6 1.657c1.371-1.314 3.142-2.057 5.028-2.057 1.885 0 3.656.743 5.027 2.057l1.6-1.6c-1.771-1.77-4.113-2.8-6.627-2.8Z" fill="#92001F"/><path d="M11.514 21.237a1.434 1.434 0 1 0 0-2.867 1.434 1.434 0 0 0 0 2.867ZM15.75 21.237a1.434 1.434 0 1 0 0-2.867 1.434 1.434 0 0 0 0 2.867ZM19.986 21.237a1.434 1.434 0 1 0 0-2.867 1.434 1.434 0 0 0 0 2.867ZM11.514 26.125a1.434 1.434 0 1 0 0-2.868 1.434 1.434 0 0 0 0 2.868ZM15.75 26.125a1.434 1.434 0 1 0 0-2.868 1.434 1.434 0 0 0 0 2.868ZM19.986 26.125a1.434 1.434 0 1 0 0-2.868 1.434 1.434 0 0 0 0 2.868Z" fill="#828282"/></g><defs><clipPath id="a"><path fill="#fff" transform="translate(.75)" d="M0 0h30v30H0z"/></clipPath></defs></svg>