<svg width="31" height="30" fill="none" xmlns="http://www.w3.org/2000/svg"><path d="M11.428 26.83H8.536L5.274 12.133h4.202l1.952 14.697Z" fill="#92001F"/><path d="M14.321 26.83H11.43L9.477 12.133h4.193l.651 14.697Z" fill="#DCDCDC"/><path d="M17.213 26.83h-2.892l-.651-14.697h4.201l-.658 14.697Z" fill="#92001F"/><path d="M20.105 26.83h-2.892l.658-14.697h4.194l-1.96 14.697Z" fill="#DCDCDC"/><path d="M22.998 26.83h-2.893l1.96-14.697h4.201L22.998 26.83Z" fill="#92001F"/><path d="M8.52 7.177h15.117v4.008H8.52V7.177Z" fill="#E03"/><path d="M11.15 9.849c0 1.476-1.178 2.672-2.63 2.672-1.451 0-2.628-1.197-2.628-2.672 0-1.476 1.177-2.672 2.629-2.672 1.451 0 2.628 1.196 2.628 2.672Z" fill="#E03"/><path d="M14.436 7.177c0 1.476-1.177 2.672-2.63 2.672-1.451 0-2.628-1.196-2.628-2.672 0-1.475 1.177-2.671 2.629-2.671s2.629 1.196 2.629 2.671Z" fill="#E03"/><path d="M18.38 5.841c0 1.476-1.178 2.672-2.63 2.672s-2.629-1.196-2.629-2.672c0-1.475 1.177-2.671 2.63-2.671 1.451 0 2.628 1.196 2.628 2.671Z" fill="#E03"/><path d="M21.665 7.177c0 1.476-1.177 2.672-2.629 2.672s-2.629-1.196-2.629-2.672c0-1.475 1.177-2.671 2.63-2.671 1.451 0 2.628 1.196 2.628 2.671Z" fill="#E03"/><path d="M24.951 8.513c0 1.476-1.177 2.672-2.628 2.672-1.453 0-2.63-1.196-2.63-2.672 0-1.475 1.177-2.672 2.63-2.672 1.451 0 2.628 1.197 2.628 2.672Z" fill="#E03"/><path d="M25.609 10.517c0 1.475-1.177 2.672-2.63 2.672-1.451 0-2.628-1.197-2.628-2.672 0-1.476 1.177-2.672 2.629-2.672s2.629 1.196 2.629 2.672Z" fill="#E03"/><rect x="3.92" y="10.517" width="23.66" height="2.672" rx="1.336" fill="#DCDCDC"/><path fill-rule="evenodd" clip-rule="evenodd" d="M3.92 11.853c0 .73.587 1.325 1.316 1.335h21.029a1.336 1.336 0 0 0 1.315-1.325v-.01H3.92Z" fill="#E1E7F0"/><path d="M8.85 9.515c.328-.89 1.446-2.271 3.286-.668M13.778 6.579c.329-.891 1.446-2.271 3.286-.668M19.693 8.41c.71-.621 2.342-1.286 3.198 1.018" stroke="#fff" stroke-width=".535" stroke-linecap="round"/><ellipse cx="15.75" cy="20.536" rx="6.572" ry="2.004" fill="#E03"/></svg>